<svg xmlns="http://www.w3.org/2000/svg" version="1.1" xmlns:xlink="http://www.w3.org/1999/xlink" xmlns:svgjs="http://svgjs.dev/svgjs" viewBox="0 0 13.04033342790463 13.088300620292697"><g transform="matrix(1,0,0,1,1.0886908838741896,8.631584736418509)"><rect width="13.088300620292697" height="13.088300620292697" x="-1.1126744800682236" y="-8.631584736418509" fill="#102036"></rect><g><path d=" M 0.18 1.068 L 0.5565 1.068 Q 0.657 1.068 0.726 1.04175 Q 0.795 1.0155 0.837 0.9735 Q 0.879 0.9315 0.89775 0.8782500000000001 Q 0.9165 0.8250000000000001 0.9165 0.7710000000000001 Q 0.9165 0.6855 0.87975 0.6345000000000001 Q 0.843 0.5835000000000001 0.792 0.5565 Q 0.741 0.5295000000000001 0.687 0.5205000000000001 Q 0.633 0.5115000000000001 0.6 0.51 L 0.6 0.504 Q 0.6525 0.504 0.6990000000000001 0.48375 Q 0.7455 0.4635 0.78075 0.43125 Q 0.8160000000000001 0.399 0.837 0.35625000000000007 Q 0.858 0.3135 0.858 0.26550000000000007 Q 0.858 0.22350000000000003 0.84 0.18000000000000005 Q 0.8220000000000001 0.13650000000000007 0.78525 0.10050000000000003 Q 0.7485 0.0645 0.69075 0.04125000000000001 Q 0.633 0.018000000000000016 0.555 0.018000000000000016 L 0.18 0.018000000000000016 L 0.18 1.068 M 0.3165 1.002 L 0.3165 0.543 L 0.4815 0.543 Q 0.555 0.543 0.609 0.5625 Q 0.663 0.5820000000000001 0.69825 0.615 Q 0.7335 0.6480000000000001 0.75075 0.6915 Q 0.768 0.7350000000000001 0.768 0.783 Q 0.768 0.8355 0.74925 0.8760000000000001 Q 0.7305 0.9165000000000001 0.6990000000000001 0.9450000000000001 Q 0.6675 0.9735 0.62475 0.98775 Q 0.582 1.002 0.534 1.002 L 0.3165 1.002 M 0.3165 0.4770000000000001 L 0.3165 0.08400000000000007 L 0.4995 0.08400000000000007 Q 0.558 0.08400000000000007 0.5992500000000001 0.10050000000000003 Q 0.6405 0.11699999999999999 0.6667500000000001 0.14400000000000002 Q 0.6930000000000001 0.17100000000000004 0.705 0.20550000000000002 Q 0.717 0.24 0.717 0.2745000000000001 Q 0.717 0.31800000000000006 0.69975 0.35550000000000004 Q 0.6825 0.393 0.65175 0.42000000000000004 Q 0.621 0.44700000000000006 0.58125 0.4620000000000001 Q 0.5415 0.4770000000000001 0.4965 0.4770000000000001 L 0.3165 0.4770000000000001 M 1.7700161132812502 0.7590000000000001 L 1.91401611328125 1.068 L 2.05951611328125 1.068 L 1.5705161132812502 0.018000000000000016 L 1.49551611328125 0.018000000000000016 L 1.05151611328125 1.068 L 1.1205161132812502 1.068 L 1.2525161132812501 0.7590000000000001 L 1.7700161132812502 0.7590000000000001 M 1.73851611328125 0.6915 L 1.28101611328125 0.6915 L 1.49701611328125 0.18600000000000005 L 1.50301611328125 0.18600000000000005 L 1.73851611328125 0.6915 M 2.2995080566406254 1.068 L 2.2995080566406254 0.018000000000000016 L 2.4360080566406253 0.018000000000000016 L 2.4360080566406253 0.9855 L 2.9775080566406253 0.9855 L 2.9775080566406253 1.068 L 2.2995080566406254 1.068 M 3.8009926757812504 0.7590000000000001 L 3.9449926757812506 1.068 L 4.090492675781251 1.068 L 3.6014926757812504 0.018000000000000016 L 3.5264926757812503 0.018000000000000016 L 3.0824926757812503 1.068 L 3.1514926757812503 1.068 L 3.2834926757812504 0.7590000000000001 L 3.8009926757812504 0.7590000000000001 M 3.76949267578125 0.6915 L 3.3119926757812506 0.6915 L 3.5279926757812503 0.18600000000000005 L 3.5339926757812505 0.18600000000000005 L 3.76949267578125 0.6915 M 4.616984619140625 0.018000000000000016 L 4.616984619140625 0.7755000000000001 Q 4.616984619140625 0.8115000000000001 4.614734619140625 0.8542500000000001 Q 4.612484619140625 0.897 4.597484619140626 0.9337500000000001 Q 4.582484619140626 0.9705 4.551734619140626 0.9952500000000001 Q 4.520984619140625 1.02 4.463984619140626 1.02 Q 4.414484619140626 1.02 4.382234619140625 1.002 Q 4.349984619140626 0.9840000000000001 4.331234619140625 0.9570000000000001 Q 4.312484619140625 0.93 4.304234619140625 0.8992500000000001 Q 4.295984619140626 0.8685 4.295984619140626 0.8445 L 4.165484619140625 0.8445 Q 4.168484619140625 0.9600000000000001 4.240484619140625 1.0230000000000001 Q 4.312484619140625 1.086 4.4564846191406255 1.086 Q 4.559984619140626 1.086 4.6199846191406255 1.05525 Q 4.679984619140625 1.0245 4.709234619140625 0.9772500000000001 Q 4.738484619140626 0.93 4.745984619140626 0.8745 Q 4.753484619140625 0.8190000000000001 4.753484619140625 0.7710000000000001 L 4.753484619140625 0.018000000000000016 L 4.616984619140625 0.018000000000000016 M 5.188443603515625 0.018000000000000016 L 5.188443603515625 1.068 L 5.324943603515625 1.068 L 5.324943603515625 0.018000000000000016 L 5.188443603515625 0.018000000000000016 M 6.883423095703124 0.7590000000000001 L 7.027423095703124 1.068 L 7.1729230957031245 1.068 L 6.683923095703125 0.018000000000000016 L 6.608923095703124 0.018000000000000016 L 6.1649230957031245 1.068 L 6.233923095703124 1.068 L 6.365923095703124 0.7590000000000001 L 6.883423095703124 0.7590000000000001 M 6.851923095703125 0.6915 L 6.394423095703124 0.6915 L 6.6104230957031245 0.18600000000000005 L 6.616423095703125 0.18600000000000005 L 6.851923095703125 0.6915 M 8.3684150390625 0.6000000000000001 L 8.071415039062499 0.6000000000000001 L 8.071415039062499 0.6615 L 8.2394150390625 0.6615 L 8.2394150390625 0.933 Q 8.1719150390625 0.9765 8.101415039062498 0.9975 Q 8.0309150390625 1.0185 7.940915039062499 1.0185 Q 7.822415039062499 1.0185 7.7339150390624996 0.9825 Q 7.645415039062499 0.9465000000000001 7.586915039062499 0.88275 Q 7.528415039062499 0.8190000000000001 7.4991650390624995 0.7312500000000001 Q 7.469915039062499 0.6435000000000001 7.469915039062499 0.5385000000000001 Q 7.469915039062499 0.43500000000000005 7.4976650390624995 0.3480000000000001 Q 7.5254150390625 0.261 7.580915039062499 0.19800000000000006 Q 7.636415039062499 0.135 7.716665039062499 0.10050000000000003 Q 7.796915039062499 0.06600000000000006 7.903415039062499 0.06600000000000006 Q 7.973915039062499 0.06600000000000006 8.0354150390625 0.08100000000000007 Q 8.0969150390625 0.09600000000000009 8.1449150390625 0.12 Q 8.192915039062498 0.14400000000000002 8.2236650390625 0.17475000000000007 Q 8.254415039062499 0.20550000000000002 8.2634150390625 0.237 L 8.3714150390625 0.237 Q 8.3579150390625 0.20400000000000007 8.3256650390625 0.16275000000000006 Q 8.293415039062499 0.12150000000000005 8.2379150390625 0.08550000000000002 Q 8.1824150390625 0.0495000000000001 8.100665039062498 0.02475000000000005 Q 8.018915039062499 0 7.907915039062499 0 Q 7.7804150390624995 0 7.673165039062499 0.03600000000000003 Q 7.565915039062499 0.07200000000000006 7.487915039062499 0.13950000000000007 Q 7.409915039062499 0.20700000000000007 7.366415039062499 0.30525 Q 7.322915039062499 0.4035000000000001 7.322915039062499 0.528 Q 7.322915039062499 0.6345000000000001 7.3566650390624995 0.7342500000000001 Q 7.390415039062499 0.8340000000000001 7.460165039062499 0.9127500000000001 Q 7.529915039062499 0.9915 7.6379150390624995 1.03875 Q 7.745915039062499 1.086 7.8959150390624995 1.086 Q 8.008415039062498 1.086 8.0954150390625 1.06125 Q 8.1824150390625 1.0365 8.2394150390625 1.0065 L 8.2394150390625 1.068 L 8.3684150390625 1.068 L 8.3684150390625 0.6000000000000001 M 8.65343994140625 0.018000000000000016 L 8.65343994140625 1.068 L 8.78993994140625 1.068 L 8.78993994140625 0.6045 L 8.85593994140625 0.6045 Q 8.89793994140625 0.6045 8.92568994140625 0.6120000000000001 Q 8.95343994140625 0.6195 8.97593994140625 0.6375000000000001 Q 8.99843994140625 0.6555 9.017939941406249 0.684 Q 9.03743994140625 0.7125000000000001 9.064439941406249 0.7545000000000001 L 9.18293994140625 0.93 Q 9.205439941406249 0.9645 9.22718994140625 0.9930000000000001 Q 9.248939941406249 1.0215 9.27443994140625 1.04175 Q 9.29993994140625 1.062 9.33218994140625 1.074 Q 9.36443994140625 1.086 9.40943994140625 1.086 Q 9.44243994140625 1.086 9.46343994140625 1.083 Q 9.48443994140625 1.08 9.50543994140625 1.068 L 9.50543994140625 1.0125 Q 9.49793994140625 1.014 9.49043994140625 1.01475 Q 9.48293994140625 1.0155 9.47543994140625 1.0155 Q 9.44393994140625 1.0155 9.41993994140625 1.0065 Q 9.39593994140625 0.9975 9.37493994140625 0.9802500000000001 Q 9.35393994140625 0.9630000000000001 9.33443994140625 0.93825 Q 9.31493994140625 0.9135000000000001 9.29393994140625 0.8820000000000001 Q 9.23093994140625 0.7905 9.19643994140625 0.7357500000000001 Q 9.16193994140625 0.681 9.14168994140625 0.651 Q 9.12143994140625 0.621 9.108689941406249 0.6075 Q 9.09593994140625 0.5940000000000001 9.07793994140625 0.5850000000000001 L 9.062939941406249 0.5775000000000001 L 9.062939941406249 0.5715000000000001 Q 9.13493994140625 0.5670000000000001 9.18668994140625 0.54 Q 9.23843994140625 0.513 9.27143994140625 0.47250000000000003 Q 9.30443994140625 0.43200000000000005 9.31943994140625 0.38475000000000004 Q 9.33443994140625 0.3375 9.33443994140625 0.2925000000000001 Q 9.33443994140625 0.252 9.31868994140625 0.20400000000000007 Q 9.30293994140625 0.15600000000000003 9.26468994140625 0.11475000000000002 Q 9.22643994140625 0.07350000000000001 9.16043994140625 0.04574999999999996 Q 9.09443994140625 0.018000000000000016 8.99393994140625 0.018000000000000016 L 8.65343994140625 0.018000000000000016 M 8.78993994140625 0.08400000000000007 L 8.94143994140625 0.08400000000000007 Q 8.99843994140625 0.08400000000000007 9.04418994140625 0.10050000000000003 Q 9.08993994140625 0.11699999999999999 9.12293994140625 0.14625 Q 9.155939941406249 0.1755 9.17318994140625 0.21600000000000008 Q 9.19043994140625 0.25650000000000006 9.19043994140625 0.3045 Q 9.19043994140625 0.3450000000000001 9.17468994140625 0.3862500000000001 Q 9.15893994140625 0.4275000000000001 9.12743994140625 0.46125000000000005 Q 9.09593994140625 0.495 9.05018994140625 0.516 Q 9.00443994140625 0.537 8.94443994140625 0.537 L 8.78993994140625 0.537 L 8.78993994140625 0.08400000000000007 M 9.64046630859375 0.543 Q 9.64046630859375 0.627 9.67271630859375 0.7222500000000001 Q 9.70496630859375 0.8175000000000001 9.773966308593751 0.8985000000000001 Q 9.84296630859375 0.9795 9.94946630859375 1.03275 Q 10.055966308593751 1.086 10.20446630859375 1.086 Q 10.30496630859375 1.086 10.386716308593751 1.06125 Q 10.46846630859375 1.0365 10.53371630859375 0.9945 Q 10.59896630859375 0.9525 10.64696630859375 0.89775 Q 10.69496630859375 0.8430000000000001 10.72571630859375 0.7822500000000001 Q 10.756466308593751 0.7215 10.77221630859375 0.66 Q 10.78796630859375 0.5985 10.78796630859375 0.543 Q 10.78796630859375 0.4590000000000001 10.753466308593751 0.36375 Q 10.71896630859375 0.26850000000000007 10.64696630859375 0.1875 Q 10.574966308593751 0.10650000000000004 10.46471630859375 0.05325000000000002 Q 10.35446630859375 0 10.20446630859375 0 Q 10.055966308593751 0 9.94946630859375 0.05249999999999999 Q 9.84296630859375 0.1050000000000001 9.773966308593751 0.18525000000000003 Q 9.70496630859375 0.26550000000000007 9.67271630859375 0.36150000000000004 Q 9.64046630859375 0.4575 9.64046630859375 0.543 M 9.78746630859375 0.543 Q 9.78746630859375 0.43800000000000006 9.819716308593751 0.35025000000000006 Q 9.85196630859375 0.26250000000000007 9.908216308593751 0.1995 Q 9.96446630859375 0.13650000000000007 10.04096630859375 0.10125000000000006 Q 10.11746630859375 0.06600000000000006 10.20746630859375 0.06600000000000006 Q 10.29596630859375 0.06600000000000006 10.37471630859375 0.10125000000000006 Q 10.45346630859375 0.13650000000000007 10.51271630859375 0.1995 Q 10.571966308593751 0.26250000000000007 10.60646630859375 0.35025000000000006 Q 10.64096630859375 0.43800000000000006 10.64096630859375 0.543 Q 10.64096630859375 0.6480000000000001 10.60646630859375 0.7357500000000001 Q 10.571966308593751 0.8235000000000001 10.51271630859375 0.8865000000000001 Q 10.45346630859375 0.9495 10.37471630859375 0.98475 Q 10.29596630859375 1.02 10.20746630859375 1.02 Q 10.11746630859375 1.02 10.04096630859375 0.98475 Q 9.96446630859375 0.9495 9.908216308593751 0.8865000000000001 Q 9.85196630859375 0.8235000000000001 9.819716308593751 0.7357500000000001 Q 9.78746630859375 0.6480000000000001 9.78746630859375 0.543 M 1.3965256347656259 2.0159999999999996 Q 1.4355256347656258 2.0264999999999995 1.480525634765626 2.03325 Q 1.5255256347656259 2.0399999999999996 1.579525634765626 2.0399999999999996 Q 1.6710256347656258 2.0399999999999996 1.7415256347656258 2.0145 Q 1.8120256347656258 1.9889999999999997 1.8592756347656259 1.9447499999999998 Q 1.9065256347656259 1.9004999999999996 1.9305256347656259 1.8427499999999997 Q 1.954525634765626 1.7849999999999997 1.954525634765626 1.7189999999999999 Q 1.954525634765626 1.6559999999999997 1.9335256347656258 1.5982499999999997 Q 1.9125256347656259 1.5404999999999998 1.869775634765626 1.4977499999999997 Q 1.8270256347656257 1.4549999999999996 1.762525634765626 1.4294999999999998 Q 1.6980256347656257 1.4039999999999997 1.611025634765626 1.4039999999999997 L 1.2600256347656258 1.4039999999999997 L 1.2600256347656258 2.4539999999999997 L 1.3965256347656259 2.4539999999999997 L 1.3965256347656259 2.0159999999999996 M 1.3965256347656259 1.4699999999999998 L 1.5540256347656258 1.4699999999999998 Q 1.6170256347656258 1.4699999999999998 1.6650256347656258 1.4924999999999997 Q 1.7130256347656259 1.5149999999999997 1.7445256347656257 1.5517499999999997 Q 1.776025634765626 1.5884999999999998 1.7917756347656257 1.6342499999999998 Q 1.8075256347656259 1.6799999999999997 1.8075256347656259 1.7249999999999996 Q 1.8075256347656259 1.7684999999999997 1.7932756347656258 1.8127499999999999 Q 1.779025634765626 1.8569999999999998 1.7475256347656258 1.8929999999999998 Q 1.716025634765626 1.9289999999999998 1.668025634765626 1.9514999999999998 Q 1.6200256347656259 1.9739999999999998 1.552525634765626 1.9739999999999998 Q 1.5060256347656258 1.9739999999999998 1.4670256347656259 1.9702499999999996 Q 1.428025634765626 1.9664999999999997 1.3965256347656259 1.9544999999999997 L 1.3965256347656259 1.4699999999999998 M 2.194489746093751 1.4039999999999997 L 2.194489746093751 2.4539999999999997 L 2.330989746093751 2.4539999999999997 L 2.330989746093751 1.9904999999999997 L 2.396989746093751 1.9904999999999997 Q 2.438989746093751 1.9904999999999997 2.466739746093751 1.9979999999999998 Q 2.494489746093751 2.0054999999999996 2.516989746093751 2.0235 Q 2.539489746093751 2.0414999999999996 2.5589897460937507 2.07 Q 2.578489746093751 2.0984999999999996 2.6054897460937507 2.1405 L 2.7239897460937508 2.316 Q 2.7464897460937507 2.3505 2.768239746093751 2.3789999999999996 Q 2.789989746093751 2.4074999999999998 2.815489746093751 2.4277499999999996 Q 2.8409897460937508 2.448 2.873239746093751 2.4599999999999995 Q 2.905489746093751 2.4719999999999995 2.950489746093751 2.4719999999999995 Q 2.983489746093751 2.4719999999999995 3.0044897460937507 2.469 Q 3.025489746093751 2.4659999999999997 3.046489746093751 2.4539999999999997 L 3.046489746093751 2.3985 Q 3.038989746093751 2.4 3.031489746093751 2.40075 Q 3.023989746093751 2.4014999999999995 3.016489746093751 2.4014999999999995 Q 2.984989746093751 2.4014999999999995 2.960989746093751 2.3924999999999996 Q 2.936989746093751 2.3834999999999997 2.915989746093751 2.3662499999999995 Q 2.894989746093751 2.3489999999999998 2.875489746093751 2.3242499999999997 Q 2.855989746093751 2.2994999999999997 2.834989746093751 2.268 Q 2.771989746093751 2.1765 2.737489746093751 2.1217499999999996 Q 2.702989746093751 2.0669999999999997 2.682739746093751 2.037 Q 2.662489746093751 2.0069999999999997 2.649739746093751 1.9934999999999996 Q 2.636989746093751 1.9799999999999998 2.6189897460937512 1.9709999999999996 L 2.603989746093751 1.9634999999999998 L 2.603989746093751 1.9574999999999998 Q 2.6759897460937507 1.9529999999999998 2.727739746093751 1.9259999999999997 Q 2.779489746093751 1.8989999999999996 2.812489746093751 1.8584999999999998 Q 2.845489746093751 1.8179999999999996 2.860489746093751 1.7707499999999996 Q 2.875489746093751 1.7234999999999996 2.875489746093751 1.6784999999999997 Q 2.875489746093751 1.6379999999999997 2.859739746093751 1.5899999999999999 Q 2.843989746093751 1.5419999999999998 2.805739746093751 1.5007499999999996 Q 2.767489746093751 1.4594999999999998 2.701489746093751 1.4317499999999996 Q 2.635489746093751 1.4039999999999997 2.5349897460937507 1.4039999999999997 L 2.194489746093751 1.4039999999999997 M 2.330989746093751 1.4699999999999998 L 2.482489746093751 1.4699999999999998 Q 2.539489746093751 1.4699999999999998 2.585239746093751 1.4864999999999997 Q 2.630989746093751 1.5029999999999997 2.663989746093751 1.5322499999999997 Q 2.696989746093751 1.5614999999999997 2.714239746093751 1.6019999999999999 Q 2.731489746093751 1.6424999999999996 2.731489746093751 1.6904999999999997 Q 2.731489746093751 1.7309999999999999 2.715739746093751 1.7722499999999997 Q 2.6999897460937508 1.8135 2.668489746093751 1.8472499999999998 Q 2.636989746093751 1.8809999999999998 2.591239746093751 1.9019999999999997 Q 2.545489746093751 1.9229999999999996 2.485489746093751 1.9229999999999996 L 2.330989746093751 1.9229999999999996 L 2.330989746093751 1.4699999999999998 M 3.1815161132812513 1.9289999999999998 Q 3.1815161132812513 2.013 3.213766113281251 2.10825 Q 3.246016113281251 2.2034999999999996 3.315016113281251 2.2844999999999995 Q 3.384016113281251 2.3655 3.490516113281251 2.4187499999999997 Q 3.597016113281251 2.4719999999999995 3.7455161132812513 2.4719999999999995 Q 3.846016113281251 2.4719999999999995 3.927766113281251 2.44725 Q 4.009516113281251 2.4225 4.074766113281251 2.3804999999999996 Q 4.140016113281251 2.3385 4.188016113281251 2.2837499999999995 Q 4.236016113281251 2.2289999999999996 4.2667661132812515 2.1682499999999996 Q 4.297516113281251 2.1075 4.3132661132812515 2.046 Q 4.329016113281251 1.9844999999999997 4.329016113281251 1.9289999999999998 Q 4.329016113281251 1.8449999999999998 4.294516113281251 1.7497499999999997 Q 4.260016113281251 1.6544999999999996 4.188016113281251 1.5734999999999997 Q 4.116016113281251 1.4924999999999997 4.005766113281251 1.4392499999999997 Q 3.8955161132812512 1.3859999999999997 3.7455161132812513 1.3859999999999997 Q 3.597016113281251 1.3859999999999997 3.490516113281251 1.4384999999999997 Q 3.384016113281251 1.4909999999999997 3.315016113281251 1.5712499999999996 Q 3.246016113281251 1.6514999999999997 3.213766113281251 1.7474999999999996 Q 3.1815161132812513 1.8434999999999997 3.1815161132812513 1.9289999999999998 M 3.328516113281251 1.9289999999999998 Q 3.328516113281251 1.8239999999999998 3.360766113281251 1.7362499999999996 Q 3.3930161132812513 1.6484999999999999 3.449266113281251 1.5854999999999997 Q 3.505516113281251 1.5224999999999997 3.5820161132812514 1.4872499999999997 Q 3.658516113281251 1.4519999999999997 3.748516113281251 1.4519999999999997 Q 3.8370161132812513 1.4519999999999997 3.915766113281251 1.4872499999999997 Q 3.994516113281251 1.5224999999999997 4.0537661132812515 1.5854999999999997 Q 4.113016113281251 1.6484999999999999 4.147516113281251 1.7362499999999996 Q 4.182016113281251 1.8239999999999998 4.182016113281251 1.9289999999999998 Q 4.182016113281251 2.034 4.147516113281251 2.1217499999999996 Q 4.113016113281251 2.2095 4.0537661132812515 2.2725 Q 3.994516113281251 2.3354999999999997 3.915766113281251 2.3707499999999997 Q 3.8370161132812513 2.4059999999999997 3.748516113281251 2.4059999999999997 Q 3.658516113281251 2.4059999999999997 3.5820161132812514 2.3707499999999997 Q 3.505516113281251 2.3354999999999997 3.449266113281251 2.2725 Q 3.3930161132812513 2.2095 3.360766113281251 2.1217499999999996 Q 3.328516113281251 2.034 3.328516113281251 1.9289999999999998 M 4.614001464843751 2.4539999999999997 L 4.614001464843751 1.4039999999999997 L 4.959001464843751 1.4039999999999997 Q 5.083501464843751 1.4039999999999997 5.187001464843751 1.4437499999999996 Q 5.290501464843751 1.4834999999999998 5.364751464843751 1.5532499999999998 Q 5.43900146484375 1.6229999999999998 5.480251464843751 1.7189999999999999 Q 5.521501464843751 1.8149999999999997 5.521501464843751 1.9259999999999997 Q 5.521501464843751 2.0414999999999996 5.478751464843751 2.1382499999999998 Q 5.436001464843751 2.235 5.361751464843751 2.3055 Q 5.287501464843751 2.376 5.188501464843751 2.4149999999999996 Q 5.08950146484375 2.4539999999999997 4.977001464843751 2.4539999999999997 L 4.614001464843751 2.4539999999999997 M 4.750501464843751 2.388 L 4.915501464843751 2.388 Q 5.038501464843751 2.388 5.124751464843751 2.3467499999999997 Q 5.211001464843751 2.3055 5.266501464843751 2.2394999999999996 Q 5.322001464843751 2.1734999999999998 5.34750146484375 2.0917499999999998 Q 5.3730014648437505 2.01 5.3730014648437505 1.9289999999999998 Q 5.3730014648437505 1.8389999999999997 5.343001464843751 1.7557499999999997 Q 5.313001464843751 1.6724999999999999 5.2552514648437505 1.6087499999999997 Q 5.197501464843751 1.5449999999999997 5.11200146484375 1.5074999999999998 Q 5.026501464843751 1.4699999999999998 4.915501464843751 1.4699999999999998 L 4.750501464843751 1.4699999999999998 L 4.750501464843751 2.388 M 5.7015234375000015 1.4039999999999997 L 5.7015234375000015 2.0489999999999995 Q 5.7015234375000015 2.1104999999999996 5.713523437500001 2.1847499999999997 Q 5.7255234375000015 2.259 5.770523437500001 2.3227499999999996 Q 5.815523437500001 2.3865 5.904023437500001 2.4292499999999997 Q 5.992523437500001 2.4719999999999995 6.145523437500001 2.4719999999999995 Q 6.2415234375000015 2.4719999999999995 6.315773437500002 2.4419999999999997 Q 6.390023437500002 2.412 6.440273437500001 2.3594999999999997 Q 6.490523437500001 2.307 6.516023437500001 2.2372499999999995 Q 6.541523437500001 2.1674999999999995 6.541523437500001 2.0879999999999996 L 6.541523437500001 1.4039999999999997 L 6.4755234375000015 1.4039999999999997 L 6.4755234375000015 2.0384999999999995 Q 6.4755234375000015 2.0715 6.474023437500001 2.10525 Q 6.472523437500001 2.139 6.465023437500001 2.1727499999999997 Q 6.457523437500002 2.2064999999999997 6.441773437500001 2.2394999999999996 Q 6.426023437500001 2.2725 6.396023437500001 2.3055 Q 6.342023437500002 2.364 6.274523437500001 2.385 Q 6.207023437500001 2.4059999999999997 6.133523437500001 2.4059999999999997 Q 6.070523437500001 2.4059999999999997 6.021773437500001 2.3865 Q 5.973023437500001 2.3669999999999995 5.929523437500001 2.328 Q 5.895023437500002 2.2979999999999996 5.877023437500001 2.268 Q 5.859023437500001 2.2379999999999995 5.850023437500002 2.2087499999999998 Q 5.841023437500001 2.1794999999999995 5.839523437500001 2.1494999999999997 Q 5.838023437500001 2.1194999999999995 5.838023437500001 2.0894999999999997 L 5.838023437500001 1.4039999999999997 L 5.7015234375000015 1.4039999999999997 M 7.739979492187502 2.2604999999999995 Q 7.586979492187502 2.4044999999999996 7.376979492187502 2.4044999999999996 Q 7.259979492187502 2.4044999999999996 7.169979492187502 2.364 Q 7.079979492187502 2.3234999999999997 7.019979492187502 2.256 Q 6.959979492187502 2.1885 6.929229492187502 2.0999999999999996 Q 6.898479492187502 2.0115 6.898479492187502 1.9154999999999998 Q 6.898479492187502 1.8135 6.930729492187502 1.7287499999999998 Q 6.962979492187502 1.6439999999999997 7.021479492187502 1.5824999999999996 Q 7.079979492187502 1.5209999999999997 7.160229492187502 1.4864999999999997 Q 7.240479492187502 1.4519999999999997 7.334979492187502 1.4519999999999997 Q 7.399479492187502 1.4519999999999997 7.452729492187502 1.4669999999999996 Q 7.505979492187502 1.4819999999999998 7.547229492187502 1.5059999999999998 Q 7.588479492187502 1.5299999999999998 7.614729492187502 1.5607499999999996 Q 7.640979492187502 1.5914999999999997 7.651479492187502 1.6229999999999998 L 7.762479492187502 1.6229999999999998 Q 7.739979492187502 1.5719999999999996 7.704729492187502 1.5284999999999997 Q 7.669479492187502 1.4849999999999999 7.616979492187502 1.4534999999999998 Q 7.564479492187502 1.4219999999999997 7.493979492187502 1.4039999999999997 Q 7.423479492187502 1.3859999999999997 7.333479492187502 1.3859999999999997 Q 7.202979492187502 1.3859999999999997 7.095729492187502 1.4234999999999998 Q 6.988479492187502 1.4609999999999999 6.911979492187502 1.5307499999999998 Q 6.835479492187502 1.6004999999999998 6.793479492187502 1.6987499999999998 Q 6.751479492187502 1.7969999999999997 6.751479492187502 1.9184999999999999 Q 6.751479492187502 2.0235 6.785229492187502 2.1232499999999996 Q 6.818979492187502 2.223 6.889479492187502 2.3002499999999997 Q 6.959979492187502 2.3775 7.069479492187502 2.4247499999999995 Q 7.178979492187502 2.4719999999999995 7.330479492187502 2.4719999999999995 Q 7.426479492187502 2.4719999999999995 7.502229492187502 2.4539999999999997 Q 7.577979492187502 2.436 7.634229492187502 2.40975 Q 7.690479492187502 2.3834999999999997 7.727979492187502 2.3535 Q 7.765479492187502 2.3234999999999997 7.784979492187502 2.3009999999999997 L 7.739979492187502 2.2604999999999995 M 8.398437744140628 2.4539999999999997 L 8.398437744140628 1.4864999999999997 L 8.800437744140627 1.4864999999999997 L 8.800437744140627 1.4039999999999997 L 7.859937744140628 1.4039999999999997 L 7.859937744140628 1.4864999999999997 L 8.261937744140628 1.4864999999999997 L 8.261937744140628 2.4539999999999997 L 8.398437744140628 2.4539999999999997 M 8.900926025390628 2.1885 Q 8.903926025390628 2.2529999999999997 8.934676025390628 2.3055 Q 8.965426025390627 2.3579999999999997 9.018676025390628 2.3947499999999997 Q 9.071926025390628 2.4314999999999998 9.143926025390629 2.4517499999999997 Q 9.215926025390628 2.4719999999999995 9.301426025390628 2.4719999999999995 Q 9.388426025390627 2.4719999999999995 9.458176025390628 2.4509999999999996 Q 9.527926025390627 2.4299999999999997 9.577426025390627 2.3909999999999996 Q 9.626926025390627 2.352 9.653926025390628 2.2964999999999995 Q 9.680926025390628 2.2409999999999997 9.680926025390628 2.1734999999999998 Q 9.680926025390628 2.0805 9.634426025390628 2.0212499999999998 Q 9.587926025390628 1.9619999999999997 9.518176025390629 1.9222499999999996 Q 9.448426025390628 1.8824999999999998 9.366676025390628 1.8554999999999997 Q 9.284926025390629 1.8284999999999996 9.215176025390628 1.7984999999999998 Q 9.145426025390629 1.7684999999999997 9.098926025390629 1.7294999999999998 Q 9.052426025390629 1.6904999999999997 9.052426025390629 1.6259999999999997 Q 9.052426025390629 1.5899999999999999 9.068176025390628 1.5584999999999996 Q 9.083926025390628 1.5269999999999997 9.114676025390628 1.5037499999999997 Q 9.145426025390629 1.4804999999999997 9.190426025390629 1.4662499999999996 Q 9.235426025390629 1.4519999999999997 9.293926025390627 1.4519999999999997 Q 9.391426025390627 1.4519999999999997 9.459676025390628 1.4932499999999997 Q 9.527926025390627 1.5344999999999998 9.539926025390628 1.6229999999999998 L 9.641926025390628 1.6229999999999998 Q 9.632926025390628 1.5674999999999997 9.601426025390628 1.5232499999999998 Q 9.569926025390629 1.4789999999999996 9.521926025390629 1.4482499999999998 Q 9.473926025390629 1.4174999999999998 9.413176025390628 1.4017499999999996 Q 9.352426025390628 1.3859999999999997 9.286426025390629 1.3859999999999997 Q 9.217426025390628 1.3859999999999997 9.155176025390627 1.4039999999999997 Q 9.092926025390629 1.4219999999999997 9.045676025390629 1.4564999999999997 Q 8.998426025390629 1.4909999999999997 8.970676025390627 1.5434999999999999 Q 8.942926025390628 1.5959999999999996 8.942926025390628 1.6634999999999998 Q 8.942926025390628 1.7519999999999998 8.987926025390628 1.8059999999999996 Q 9.032926025390628 1.8599999999999999 9.101176025390629 1.8959999999999997 Q 9.169426025390628 1.9319999999999997 9.248926025390627 1.9574999999999998 Q 9.328426025390629 1.9829999999999997 9.396676025390628 2.0152499999999995 Q 9.464926025390628 2.0475 9.509926025390628 2.094 Q 9.554926025390628 2.1405 9.554926025390628 2.2184999999999997 Q 9.554926025390628 2.316 9.483676025390627 2.3609999999999998 Q 9.412426025390628 2.4059999999999997 9.293926025390627 2.4059999999999997 Q 9.199426025390627 2.4059999999999997 9.142426025390629 2.3812499999999996 Q 9.085426025390628 2.3564999999999996 9.055426025390629 2.3219999999999996 Q 9.025426025390628 2.2874999999999996 9.014926025390627 2.2507499999999996 Q 9.004426025390629 2.2139999999999995 9.002926025390629 2.1885 L 8.900926025390628 2.1885" fill="#ffffff" fill-rule="nonzero"></path></g><g><path d=" M 3.5980953369140627 3.350024999999999 Q 3.5587203369140625 3.3320249999999993 3.5362203369140626 3.299774999999999 Q 3.5137203369140626 3.267524999999999 3.5122203369140625 3.2277749999999994 L 3.567720336914063 3.2277749999999994 Q 3.5714703369140626 3.266024999999999 3.601470336914063 3.2948999999999993 Q 3.6314703369140626 3.323774999999999 3.6892203369140626 3.323774999999999 Q 3.742470336914063 3.323774999999999 3.7735953369140627 3.2963999999999993 Q 3.8047203369140625 3.269024999999999 3.8047203369140625 3.2270249999999994 Q 3.8047203369140625 3.193274999999999 3.7874703369140628 3.172649999999999 Q 3.7702203369140626 3.152024999999999 3.744720336914063 3.1418999999999992 Q 3.719220336914063 3.1317749999999993 3.674220336914063 3.1197749999999993 Q 3.6217203369140627 3.105524999999999 3.590970336914063 3.092024999999999 Q 3.5602203369140626 3.078524999999999 3.5384703369140627 3.0500249999999993 Q 3.5167203369140627 3.021524999999999 3.5167203369140627 2.972774999999999 Q 3.5167203369140627 2.9322749999999993 3.5377203369140626 2.900399999999999 Q 3.5587203369140625 2.868524999999999 3.5969703369140626 2.8505249999999993 Q 3.6352203369140628 2.832524999999999 3.684720336914063 2.832524999999999 Q 3.7574703369140625 2.832524999999999 3.802095336914063 2.868149999999999 Q 3.846720336914063 2.903774999999999 3.8534703369140626 2.960024999999999 L 3.7964703369140627 2.960024999999999 Q 3.791220336914063 2.927774999999999 3.7612203369140627 2.902649999999999 Q 3.731220336914063 2.877524999999999 3.6802203369140627 2.877524999999999 Q 3.6329703369140627 2.877524999999999 3.601470336914063 2.902649999999999 Q 3.5699703369140625 2.927774999999999 3.5699703369140625 2.971274999999999 Q 3.5699703369140625 3.0042749999999994 3.5872203369140627 3.0245249999999992 Q 3.604470336914063 3.044774999999999 3.6303453369140626 3.055274999999999 Q 3.6562203369140627 3.065774999999999 3.7004703369140626 3.077774999999999 Q 3.7514703369140627 3.092024999999999 3.7829703369140626 3.105899999999999 Q 3.814470336914063 3.1197749999999993 3.836220336914063 3.148274999999999 Q 3.8579703369140628 3.1767749999999992 3.8579703369140628 3.2247749999999993 Q 3.8579703369140628 3.2615249999999993 3.838470336914063 3.2945249999999993 Q 3.8189703369140626 3.327524999999999 3.7807203369140625 3.347774999999999 Q 3.742470336914063 3.3680249999999994 3.6892203369140626 3.3680249999999994 Q 3.637470336914063 3.3680249999999994 3.5980953369140627 3.350024999999999 M 4.019236450195312 2.8385249999999993 L 4.019236450195312 3.362774999999999 L 3.9667364501953126 3.362774999999999 L 3.9667364501953126 2.8385249999999993 L 4.019236450195312 2.8385249999999993 M 4.541239379882813 3.362774999999999 L 4.488739379882813 3.362774999999999 L 4.198489379882813 2.9217749999999993 L 4.198489379882813 3.362774999999999 L 4.1459893798828125 3.362774999999999 L 4.1459893798828125 2.8385249999999993 L 4.198489379882813 2.8385249999999993 L 4.488739379882813 3.278774999999999 L 4.488739379882813 2.8385249999999993 L 4.541239379882813 2.8385249999999993 L 4.541239379882813 3.362774999999999 M 4.677719970703126 2.961899999999999 Q 4.711469970703126 2.900774999999999 4.769969970703126 2.866649999999999 Q 4.828469970703126 2.832524999999999 4.900469970703126 2.832524999999999 Q 4.988219970703126 2.832524999999999 5.0508449707031255 2.8741499999999993 Q 5.113469970703125 2.915774999999999 5.1419699707031254 2.9915249999999993 L 5.080469970703126 2.9915249999999993 Q 5.057969970703126 2.938274999999999 5.011844970703126 2.9082749999999993 Q 4.965719970703126 2.878274999999999 4.900469970703126 2.878274999999999 Q 4.842719970703126 2.878274999999999 4.796594970703126 2.905274999999999 Q 4.750469970703126 2.9322749999999993 4.724219970703126 2.982899999999999 Q 4.6979699707031255 3.033524999999999 4.6979699707031255 3.100274999999999 Q 4.6979699707031255 3.1670249999999993 4.724219970703126 3.217274999999999 Q 4.750469970703126 3.267524999999999 4.796594970703126 3.2945249999999993 Q 4.842719970703126 3.3215249999999994 4.900469970703126 3.3215249999999994 Q 4.965719970703126 3.3215249999999994 5.011844970703126 3.291899999999999 Q 5.057969970703126 3.2622749999999994 5.080469970703126 3.209774999999999 L 5.1419699707031254 3.209774999999999 Q 5.113469970703125 3.2847749999999993 5.0504699707031255 3.326024999999999 Q 4.987469970703126 3.3672749999999994 4.900469970703126 3.3672749999999994 Q 4.828469970703126 3.3672749999999994 4.769969970703126 3.3331499999999994 Q 4.711469970703126 3.299024999999999 4.677719970703126 3.2382749999999993 Q 4.643969970703125 3.1775249999999993 4.643969970703125 3.100274999999999 Q 4.643969970703125 3.023024999999999 4.677719970703126 2.961899999999999 M 5.306217041015626 2.881274999999999 L 5.306217041015626 3.077024999999999 L 5.504967041015626 3.077024999999999 L 5.504967041015626 3.1205249999999993 L 5.306217041015626 3.1205249999999993 L 5.306217041015626 3.3192749999999993 L 5.527467041015626 3.3192749999999993 L 5.527467041015626 3.362774999999999 L 5.2537170410156255 3.362774999999999 L 5.2537170410156255 2.8377749999999993 L 5.527467041015626 2.8377749999999993 L 5.527467041015626 2.881274999999999 L 5.306217041015626 2.881274999999999 M 6.043075195312501 3.135899999999999 Q 6.1184501953125014 3.053774999999999 6.1184501953125014 2.975024999999999 Q 6.1184501953125014 2.9232749999999994 6.092575195312501 2.892149999999999 Q 6.066700195312501 2.8610249999999993 6.008200195312502 2.8610249999999993 Q 5.951200195312501 2.8610249999999993 5.920075195312501 2.8966499999999993 Q 5.888950195312502 2.9322749999999993 5.8852001953125015 2.9915249999999993 L 5.834200195312501 2.9915249999999993 Q 5.8387001953125015 2.9082749999999993 5.8855751953125015 2.8621499999999993 Q 5.9324501953125015 2.8160249999999993 6.008200195312502 2.8160249999999993 Q 6.080950195312502 2.8160249999999993 6.125950195312502 2.856899999999999 Q 6.170950195312502 2.8977749999999993 6.170950195312502 2.972774999999999 Q 6.170950195312502 3.0635249999999994 6.0955751953125015 3.148649999999999 Q 6.020200195312501 3.233774999999999 5.9099501953125015 3.314774999999999 L 6.187450195312501 3.314774999999999 L 6.187450195312501 3.359024999999999 L 5.829700195312501 3.359024999999999 L 5.829700195312501 3.3215249999999994 Q 5.967700195312501 3.218024999999999 6.043075195312501 3.135899999999999 M 6.316466308593752 2.888774999999999 Q 6.356216308593752 2.817524999999999 6.458966308593752 2.817524999999999 Q 6.561716308593752 2.817524999999999 6.601466308593752 2.888774999999999 Q 6.6412163085937514 2.960024999999999 6.6412163085937514 3.089024999999999 Q 6.6412163085937514 3.220274999999999 6.601466308593752 3.292274999999999 Q 6.561716308593752 3.3642749999999992 6.458966308593752 3.3642749999999992 Q 6.355466308593752 3.3642749999999992 6.316091308593752 3.292274999999999 Q 6.276716308593752 3.220274999999999 6.276716308593752 3.089024999999999 Q 6.276716308593752 2.960024999999999 6.316466308593752 2.888774999999999 M 6.579716308593752 2.971274999999999 Q 6.569966308593751 2.9232749999999994 6.541466308593752 2.894024999999999 Q 6.512966308593752 2.864774999999999 6.458966308593752 2.864774999999999 Q 6.404966308593751 2.864774999999999 6.376466308593752 2.894024999999999 Q 6.347966308593752 2.9232749999999994 6.3382163085937515 2.971274999999999 Q 6.328466308593752 3.019274999999999 6.328466308593752 3.089024999999999 Q 6.328466308593752 3.161024999999999 6.3382163085937515 3.209399999999999 Q 6.347966308593752 3.257774999999999 6.376466308593752 3.287024999999999 Q 6.404966308593751 3.316274999999999 6.458966308593752 3.316274999999999 Q 6.512966308593752 3.316274999999999 6.541466308593752 3.287024999999999 Q 6.569966308593751 3.257774999999999 6.579716308593752 3.209399999999999 Q 6.589466308593752 3.161024999999999 6.589466308593752 3.089024999999999 Q 6.589466308593752 3.019274999999999 6.579716308593752 2.971274999999999 M 6.7207371826171896 2.8722749999999992 L 6.7207371826171896 2.8250249999999992 L 6.84823718261719 2.8250249999999992 L 6.84823718261719 3.362774999999999 L 6.79498718261719 3.362774999999999 L 6.79498718261719 2.8722749999999992 L 6.7207371826171896 2.8722749999999992 M 7.0799813232421895 3.2945249999999993 Q 7.10923132324219 3.3207749999999994 7.16023132324219 3.3207749999999994 Q 7.23073132324219 3.3207749999999994 7.264856323242189 3.265649999999999 Q 7.29898132324219 3.210524999999999 7.29598132324219 3.0830249999999992 Q 7.28173132324219 3.124274999999999 7.2416063232421894 3.147899999999999 Q 7.20148132324219 3.171524999999999 7.1497313232421895 3.171524999999999 Q 7.07098132324219 3.171524999999999 7.02335632324219 3.124274999999999 Q 6.97573132324219 3.077024999999999 6.97573132324219 2.9930249999999994 Q 6.97573132324219 2.9427749999999993 6.99523132324219 2.902274999999999 Q 7.01473132324219 2.8617749999999993 7.0544813232421895 2.8385249999999993 Q 7.09423132324219 2.8152749999999993 7.15198132324219 2.8152749999999993 Q 7.25848132324219 2.8152749999999993 7.30048132324219 2.8846499999999993 Q 7.34248132324219 2.9540249999999992 7.34248132324219 3.0837749999999993 Q 7.34248132324219 3.2240249999999993 7.30085632324219 3.2945249999999993 Q 7.25923132324219 3.3650249999999993 7.15798132324219 3.3650249999999993 Q 7.08373132324219 3.3650249999999993 7.04248132324219 3.324899999999999 Q 7.00123132324219 3.2847749999999993 6.99373132324219 3.219524999999999 L 7.04248132324219 3.219524999999999 Q 7.05073132324219 3.268274999999999 7.0799813232421895 3.2945249999999993 M 7.22285632324219 3.111899999999999 Q 7.25248132324219 3.0972749999999993 7.27048132324219 3.068774999999999 Q 7.2884813232421894 3.0402749999999994 7.2884813232421894 3.000524999999999 Q 7.2884813232421894 2.939024999999999 7.25360632324219 2.8992749999999994 Q 7.2187313232421895 2.859524999999999 7.15348132324219 2.859524999999999 Q 7.09573132324219 2.859524999999999 7.06085632324219 2.8955249999999992 Q 7.02598132324219 2.9315249999999993 7.02598132324219 2.9915249999999993 Q 7.02598132324219 3.054524999999999 7.06048132324219 3.090524999999999 Q 7.09498132324219 3.126524999999999 7.15798132324219 3.126524999999999 Q 7.193231323242189 3.126524999999999 7.22285632324219 3.111899999999999" fill="#eda0a0" fill-rule="nonzero"></path></g><g clip-path="url(#SvgjsClipPath1002)"><g clip-path="url(#acab153b1-bb9f-465d-969f-61ea7fa5038bc6cd4dfa-413c-45bd-aef8-052e6d48ce43)"><path d=" M 10.135323428959317 -3.8506082023750503 L 10.135323428959317 -3.9424926248524725 C 10.135323428959317 -5.922812122364228 8.576891557528535 -7.543100827227523 6.672241584409951 -7.543100827227523 L 4.190761625738664 -7.543100827227523 C 2.2861116526200798 -7.543100827227523 0.7276797811892974 -5.922812122364228 0.7276797811892974 -3.942492624852472 L 0.7276797811892974 -3.8506082023750503 C 0.7276797811892974 -1.8702887048632943 2.2861116526200798 -0.25 4.190761625738664 -0.25 L 6.672241584409952 -0.25 C 8.576891557528535 -0.25 10.135323428959317 -1.8702887048632943 10.135323428959317 -3.8506082023750503" fill="#3682ae" transform="matrix(1,0,0,1,0,0)" fill-rule="nonzero"></path></g><g clip-path="url(#acab153b1-bb9f-465d-969f-61ea7fa5038bc6cd4dfa-413c-45bd-aef8-052e6d48ce43)"><path d=" M 4.403056680286172 -6.438686102155766 C 4.489536136735509 -6.268729948161581 4.602439871544368 -6.116790347594341 4.696426225254934 -5.951338331956892 C 4.798219752117175 -5.771773349468335 4.866682655139567 -5.572690434100588 4.957365974055193 -5.3868196579126 C 5.139338211386595 -5.0101506594181195 5.364235683670511 -4.655775923744942 5.627581761537567 -4.330749351203144 C 5.859743885463175 -4.043131653852335 6.129503510963768 -3.7880164108667493 6.429618664927092 -3.5722524519287395 C 6.442830804106846 -3.562943899324821 6.456643495067505 -3.5566381056253906 6.469855634247265 -3.5479301048023677 C 6.382775626017029 -3.5722524519287426 6.294494514224996 -3.5911698330270365 6.206213402432963 -3.6109880417966767 C 6.204411747090269 -3.6070844552208383 6.204712022980718 -3.6022800409736533 6.202610091747574 -3.5983764543978145 C 6.19603874740076 -3.5902994043937704 6.189631549721774 -3.5820901823675695 6.183392434758832 -3.5737538313809893 C 6.174618955905555 -3.565523556910006 6.164314731653492 -3.559096169505254 6.153064569823474 -3.5548364502826955 L 6.235340163806525 -3.5362193450748522 C 6.170576626732734 -3.51855738417545 6.1069082404479245 -3.4971006366715933 6.044664973371356 -3.471960304518748 C 6.043764145700004 -3.4800677535608715 6.038359179671922 -3.4875746508221006 6.028750351177551 -3.483671064246262 C 5.98280813993884 -3.46445340725752 5.933863169795638 -3.453943751091802 5.886719854995131 -3.4392302324597956 C 5.8711055086917785 -3.434125542322162 5.856992541840671 -3.4272191968418326 5.842579299099114 -3.4206131272519524 C 5.736882185661034 -3.396891331906474 5.64890134975945 -3.4278197486227304 5.544405339883167 -3.441932715473838 C 5.4513198138439485 -3.4545443028726996 5.359435391366526 -3.441031887802491 5.266049589436859 -3.4398307842406943 C 5.081079640920219 -3.437128301226653 4.896710244184478 -3.4584478894485375 4.711440019777388 -3.4527426475300054 C 4.374830746583957 -3.4422329913642873 4.042425335856813 -3.363260432176176 3.728036478556615 -3.238645937639804 C 3.428193627141814 -3.122210173965998 3.1574298561872007 -2.9416326703997493 2.9347075759901164 -2.709559818668504 C 2.8055889430970073 -2.574435667966415 2.6854785869173714 -2.4276007575368084 2.5458502978585438 -2.3038870906717825 C 2.4458584263389964 -2.2153057029893004 2.3287508290638512 -2.144140316952866 2.2635909608363987 -2.0222283054305352 C 2.2500785457661894 -1.9970051306328118 2.265993167959991 -1.9726827835064356 2.2912163427577146 -1.9687791969305968 C 2.9707406828440077 -1.8591784969166785 3.70011082074485 -1.8546743585599428 4.345403709319946 -2.1318290054444526 C 4.682613534294276 -2.2765619846409146 4.945054662546781 -2.5056724890535715 5.20299165244255 -2.7687141690869757 C 5.357333460133383 -2.9263590115727487 5.508972784810173 -3.0924115789910953 5.684634180722893 -3.2245329707886956 C 5.857893369512018 -3.3545524313531523 6.057276560770214 -3.428420300403629 6.2545578207952675 -3.509494790824883 C 6.265367752851433 -3.5136986532911703 6.262665269837393 -3.52390803356644 6.256359476137961 -3.5314149308276663 C 6.3389353460114615 -3.5130981015102725 6.421210939994513 -3.4929796168501834 6.504987913429808 -3.4656545108193155 C 6.521503087404509 -3.4584478894485375 6.538919089050556 -3.453042923420454 6.5560348148061545 -3.44763795739237 C 6.589965990426902 -3.4368280253362027 6.625098269609445 -3.429020852184527 6.658128617558845 -3.4158087130047665 C 6.6662360666009715 -3.4128059541002767 6.670740204957707 -3.4182109201283595 6.671641032629054 -3.425117265608689 C 6.9043548477271 -3.3023044264150103 7.149079698443109 -3.2197285565415106 7.3986089634063035 -3.1254419269404963 C 7.3986089634063035 -3.122138892145556 7.3977081357349554 -3.1182353055697183 7.4010111705298955 -3.116133374336574 C 7.470675177114084 -3.069890887207414 7.561358496029711 -3.065086472960229 7.641532158779618 -3.0653867488506776 C 7.704890371664376 -3.065687024741127 7.768248584549134 -3.0692903354265155 7.831306521543443 -3.068990059536066 C 8.15680558679026 -3.0161415028170264 8.4892109975174 -3.0356594356962177 8.819214201120953 -3.081901922825378 C 8.824619167149038 -3.0912104754292997 8.829423581396224 -3.10081930392367 8.83693047865745 -3.108326201184897 C 8.854646756193947 -3.125742202830944 8.870861654278198 -3.1449598598196866 8.887076552362448 -3.1641775168084285 L 8.890379587157387 -3.1695824828365113 C 8.434560785455666 -3.109827580637143 7.991653847043257 -3.076196680906844 7.532532010546597 -3.192703726401092 C 7.467972694100043 -3.371367881218301 7.475779867251719 -3.568048589462456 7.404614481215285 -3.7473132960605633 C 7.324140542574928 -3.9499995221136994 7.210936531875621 -4.136470850082585 7.087222865010595 -4.313633625447549 C 6.860650430125513 -4.638692804707283 6.609697644326141 -4.946059776754357 6.336533138887866 -5.2330784020026675 C 5.805345088683426 -5.7900901787857295 5.17326433928809 -6.267829120490234 4.441191718373206 -6.487330796408519 C 4.41356633645189 -6.495738521341093 4.389844541106411 -6.464810104624837 4.403056680286172 -6.438686102155766 M 3.0142806869591254 -2.675628643047757 C 3.2674132626077093 -2.9302625981485875 3.569791084289944 -3.0999184762523226 3.903998150359782 -3.211921383389834 C 4.160841906391023 -3.298379264863976 4.4284335266906165 -3.3488053292633326 4.699128708268972 -3.3617590527239303 C 4.566106488800028 -3.317318220937465 4.436987855906919 -3.2587644222998913 4.304265912328421 -3.2098194521566903 C 4.058640233941064 -3.119436409131513 3.8088106930874206 -3.059080955151246 3.5745954985371293 -2.937769495409814 C 3.339179200425042 -2.8161577597779317 3.1136720066977746 -2.6723256082528177 2.8890656406418547 -2.530895663851296 L 2.8575366721447 -2.5098763515198588 C 2.9091841253019437 -2.5657276671433893 2.9608315784591874 -2.62157898276692 3.0142806869591254 -2.675628643047757 M 2.5350403658023763 -2.2032946673713365 C 2.581282852931536 -2.2387272224443295 2.6272250641702475 -2.2738595016268723 2.667161757599976 -2.312294815604356 C 2.6983904502066816 -2.342622680539715 2.7281177633611424 -2.375052476708216 2.7584456282965 -2.4065814452053704 C 2.8200021858385638 -2.450722001101388 2.8830601228328727 -2.492160073983362 2.94671861160808 -2.5314962156321927 C 3.157812562593791 -2.6624165038679966 3.368606237689053 -2.7966398268987405 3.589309017169135 -2.9101441134884967 C 3.821722556376731 -3.0296539178872344 4.068849614216333 -3.088207716524807 4.311772809589648 -3.177389655988188 C 4.4817289635838335 -3.2395467653111494 4.645379323878588 -3.3224229110750985 4.81983961622951 -3.3644615357379717 C 4.851368584726664 -3.3644615357379717 4.881996725552471 -3.3668637428615638 4.913525694049627 -3.366263191080667 C 4.998503771046719 -3.3644615357379717 5.082881296262914 -3.3641612598475232 5.167258821479108 -3.363260432176175 C 5.068468053521356 -3.327827877103182 4.971178665015852 -3.284287872988065 4.87599120774349 -3.249756145586419 C 4.585795045995468 -3.1469798548434893 4.300077260068252 -3.0319714332991543 4.019604368182696 -2.9050394233508667 C 3.7307389615706565 -2.771416652101016 3.4475787968771643 -2.6254825693427586 3.1629172527314258 -2.4831517972698895 C 3.02929448148158 -2.4161902736997414 2.8899664683132023 -2.357936750952619 2.762048938981889 -2.2798650194358556 C 2.6605556880100965 -2.2177079101128934 2.565668506628184 -2.148043903528704 2.459971393190104 -2.0972972780428076 C 2.481591257302438 -2.1357325920202914 2.5077152597715093 -2.169964043531488 2.5350403658023763 -2.2032946673713365 M 5.747391841826753 -3.3242245664177936 C 5.607819203191609 -3.2359259288729447 5.478329965753502 -3.132616475053739 5.361237046709222 -3.0161415028170273 C 5.073272467768542 -2.7338821657948813 4.808729408282894 -2.435107654798035 4.447497512072637 -2.2525399134049877 C 3.8415407651463713 -1.9468590569278126 3.1382946297146 -1.9258397445963764 2.477387394836151 -2.0129197528266127 C 2.780365768299284 -2.066068585436102 3.087548004228704 -2.067870240778796 3.3926283089249805 -2.1042036235231363 C 3.6787912325229644 -2.1381347991438835 3.954144224064781 -2.217407634222444 4.214483421084143 -2.3456254394442064 C 4.491037516187756 -2.4822509695985415 4.738464849917807 -2.6687222975674274 4.993399080909085 -2.8434828658087987 C 5.226187509864678 -3.000450398534661 5.455551890564011 -3.1624371152398227 5.6813311459280325 -3.329329256555485 C 5.703251285930736 -3.3272273253222844 5.725171425933519 -3.3242245664177936 5.747391841826753 -3.3242245664177936 M 5.44111043356868 -3.357555190257643 C 5.296677730262666 -3.3137149102520755 5.159151372436983 -3.237745109968456 5.023426669953994 -3.1761885524263924 C 4.751376713207118 -3.0533757132327137 4.489235860845061 -2.906540802803108 4.214183145193694 -2.791535136761106 C 3.9009953914552917 -2.6609151244157516 3.576397153879824 -2.5636257359102457 3.258404985894237 -2.446518138635101 C 2.9896580639423003 -2.3474270947869 2.7563436970633566 -2.1639585257225056 2.4839934644260313 -2.078079621054065 C 2.471982428808068 -2.074176034478228 2.476486567164804 -2.0546581015990366 2.488797878673217 -2.058261412284426 C 2.7623492148723385 -2.1396361785961293 2.996864685313079 -2.320101988756033 3.265011055484117 -2.4188927567137846 C 3.546669840725364 -2.522788214809169 3.8331330402137973 -2.6110693266012026 4.11299017011235 -2.7203697507246716 C 4.360417503842401 -2.8167583115588295 4.594332422502243 -2.9413728060952016 4.833652307190168 -3.0569790239181023 C 4.955564318712499 -3.116133374336573 5.0798785373584225 -3.17018303461741 5.202391100661652 -3.2284365573645326 C 5.217104619293657 -3.235342902844862 5.420991948908591 -3.316417393266117 5.542603684540472 -3.3473458099823734 C 5.575634032489872 -3.3425413957351884 5.608364104548824 -3.337136429707104 5.640793900717325 -3.332632291350368 C 5.40777980972883 -3.158772550780345 5.168760200931353 -2.994821914595141 4.930040868024327 -2.8296701748481405 C 4.692822914569545 -2.6657195386629375 4.4616104789237445 -2.4942620052165054 4.203373213137526 -2.366945027666091 C 3.905499529812028 -2.2201101172364854 3.595014259087668 -2.145641696405111 3.2677135384981586 -2.115313831469753 C 2.981250339009726 -2.088889553110233 2.694787139521293 -2.0828840353012508 2.4122275266086985 -2.0222283054305343 C 2.3927095937295073 -2.0249307884445766 2.3731916608503165 -2.0273329955681687 2.3539740038615746 -2.0303357544726603 L 2.355175107423371 -2.0321374098153546 L 2.35547538331382 -2.0318371339249053 C 2.598999130468033 -2.096096174481011 2.8163988751531748 -2.2795647435454054 3.043707724223137 -2.390066271230671 C 3.3199615434363006 -2.5248901460423125 3.592612051964075 -2.667821469896081 3.870066974739035 -2.800243137584129 C 4.170042589297677 -2.9431744614378967 4.473921790432157 -3.077097508578192 4.7871095441705585 -3.186097656811212 C 4.939649696518697 -3.239246489420701 5.097895090785368 -3.3185193244992606 5.259743795737428 -3.362359604504828 C 5.307487662318834 -3.3620593286143796 5.355531804790688 -3.3608582250525814 5.403575947262542 -3.360557949162133 C 5.416487810551854 -3.360557949162133 5.428498846169817 -3.358155742038541 5.44111043356868 -3.357555190257642 M 6.4371255621883146 -3.635310388923052 C 6.1356485681774275 -3.85391123716999 5.869604129239532 -4.119955676107884 5.635989486470139 -4.414226048747993 C 5.379553228470463 -4.740450807389626 5.161519307660306 -5.095108571369178 4.986192459538308 -5.471197183128792 C 4.906018796788398 -5.640853061232531 4.844462239246335 -5.820418043721087 4.752277540878464 -5.983467852234943 C 4.68081187895158 -6.109283450333113 4.601539043873021 -6.229694082403197 4.528572002493892 -6.354008301049122 C 4.616853114285924 -6.239302910897569 4.689519879774604 -6.111085105675807 4.780503474580678 -5.9978810949765 C 4.912024314597381 -5.833630182900847 5.03123384310567 -5.660671270002171 5.14353702613363 -5.481706839294512 C 5.338716354925539 -5.170921292679703 5.523986579332629 -4.854130228255912 5.741686599908219 -4.559259303834905 C 6.180089399963892 -3.965613868417052 6.739503383870549 -3.524508585347337 7.374887168060825 -3.1824943461258215 C 7.051490034047154 -3.317318220937464 6.7304951071570756 -3.4230153343755436 6.4371255621883146 -3.635310388923052 M 6.324822379160353 -5.145698117881981 C 6.600051721279793 -4.854398811716545 6.851110766741402 -4.54117754659864 7.075512105283083 -4.209137615571263 C 7.192019150777329 -4.035277875001241 7.30672454092888 -3.845203236346967 7.369482202032741 -3.6419164585129318 C 7.405515308886632 -3.525409413018685 7.412121378476512 -3.4037976773868035 7.434341794369745 -3.285188700659412 C 7.170699562555443 -3.7887513689425374 6.85120601511761 -4.2583828616049155 6.54372350329774 -4.733419320295378 C 6.390282523278255 -4.97093754964061 6.228734094216644 -5.209056330766739 6.045265525152249 -5.424654420109186 C 6.1410535342055095 -5.33427137708401 6.235039887916074 -5.24148612693524 6.324822379160353 -5.145698117881981 M 5.673824248666724 -5.747751278232408 C 6.040461110905065 -5.453480905592299 6.30620527395251 -5.049009281157373 6.562040332615136 -4.652645105764573 C 6.865018706078268 -4.183313888992643 7.177605908035773 -3.7202884659201447 7.446352829987708 -3.2284365573645335 C 7.446653105878158 -3.2278360055836357 7.447253657659056 -3.228736833254983 7.447553933549505 -3.228136281474085 L 7.4523583477966895 -3.211921383389834 L 7.44905531300175 -3.212822211061181 C 7.351165372715347 -3.320621255732405 7.290809918735079 -3.4614506483530283 7.203129358723944 -3.5785582456281735 C 7.080316519530266 -3.74190833003248 6.9442915411568285 -3.8938479305997196 6.820277598401353 -4.055996911442229 C 6.578555506589836 -4.372187424085121 6.366861003823226 -4.711499180292595 6.11793229064093 -5.022284726907404 C 5.884918199652435 -5.312951788862124 5.617372381262295 -5.570888778757893 5.3513279423244 -5.828525492763213 C 5.190380065043688 -5.984368679906291 5.0219252905017475 -6.135407452802184 4.838456721437353 -6.261823602681251 C 5.136418023216339 -6.124395097801349 5.416866885139625 -5.9518111827716345 5.67382424866672 -5.74775127823241 M 4.738464849917806 -6.306864986248615 C 5.0003054263894136 -6.14351490184431 5.228515103130722 -5.9219112946928805 5.447716503158558 -5.703010170555493 C 5.706254044835227 -5.445073180659724 5.960887999936055 -5.190138949668446 6.185194090101526 -4.898270784151929 C 6.417607629309123 -4.595592686579245 6.6202938553622594 -4.269192793661083 6.8566109811456935 -3.9698177308833396 C 6.984228234586558 -3.807668750040831 7.129862041454367 -3.6548283218022437 7.243066052153674 -3.4809685812322195 C 7.299818195448553 -3.393588297111534 7.341256268330527 -3.300502771072316 7.404013929434387 -3.221530211884204 C 7.136468111044247 -3.392086917659288 6.906456778960243 -3.6205968702910463 6.680349033452077 -3.844302408675619 C 6.435924458626518 -4.086024500487138 6.1990067810621845 -4.33645459312168 5.986711726514677 -4.609405377539903 C 5.552813064815741 -5.167317981994315 5.18977951326279 -5.782283005634053 4.701530915392568 -6.293953122959304 C 4.689820155665053 -6.3062644344677175 4.67120305045721 -6.287947605150323 4.682913810184724 -6.2756362936419094 C 5.178969581206623 -5.7450487952183655 5.549510030020801 -5.11597080472752 6.001124969256233 -4.548149095888289 C 6.216422782708231 -4.277900794484108 6.455442391505708 -4.029872908973157 6.701068069893065 -3.789351920723436 C 6.925674435948985 -3.5689494171338034 7.154784940361641 -3.346444982311027 7.42293131053268 -3.1842960014685175 C 7.424834130478419 -3.178462009504754 7.429408630077329 -3.1738875099058443 7.435242622041093 -3.1719846899601034 C 7.43974676039783 -3.17018303461741 7.444250898754565 -3.1689819310556135 7.44905531300175 -3.1674805516033677 C 7.455661382591631 -3.16357696502753 7.461666900400612 -3.158772550780345 7.468573245880941 -3.154868964204506 L 7.470074625333187 -3.1530673088618117 C 7.471576004785432 -3.1494639981764223 7.472176556566331 -3.145260135710135 7.473677936018576 -3.141356549134297 L 7.444551174645015 -3.1536678606427095 C 7.446653105878158 -3.157271171328099 7.446653105878158 -3.162075585575285 7.441848691630972 -3.1647780685893263 C 6.772834007710398 -3.537420448636648 6.188196849006018 -3.9854320771866925 5.727573633057111 -4.619614757815173 C 5.502366715220293 -4.929499476758634 5.313493180127815 -5.264006818718922 5.105702263937045 -5.586202849170797 C 5.0099142548837845 -5.734839414943097 4.907820452131093 -5.877470462906415 4.7976192003362765 -6.01469654484165 C 4.703632846625711 -6.132104418007245 4.629164425794337 -6.264526085695294 4.536379175645568 -6.382534510641786 C 4.604541802777511 -6.358812715296308 4.672103878128556 -6.334790644060381 4.738464849917806 -6.306864986248615" fill="#a5b2ba" transform="matrix(1,0,0,1,0,0)" fill-rule="nonzero"></path></g></g></g><defs><clipPath id="SvgjsClipPath1002"><path d=" M 0.7276797811892974 -7.542893852544319 h 9.407592097777655 v 7.292893852544319 h -9.407592097777655 Z"></path></clipPath><clipPath id="acab153b1-bb9f-465d-969f-61ea7fa5038bc6cd4dfa-413c-45bd-aef8-052e6d48ce43"><path d=" M 0.7276797811892974 -0.25 L 10.135323428959317 -0.25 L 10.135323428959317 -7.5428005513370735 L 0.7276797811892974 -7.5428005513370735 Z"></path></clipPath></defs></svg>